<svg width="17" height="14" viewBox="0 0 17 14" fill="none" xmlns="http://www.w3.org/2000/svg">
<path d="M13.5124 2.54545H11.5124V1.90909C11.5124 1.40277 11.3017 0.917184 10.9266 0.55916C10.5515 0.201136 10.0428 0 9.51237 0H8.17904C7.6486 0 7.1399 0.201136 6.76482 0.55916C6.38975 0.917184 6.17904 1.40277 6.17904 1.90909V2.54545H4.17904C3.29531 2.54646 2.44808 2.88202 1.82318 3.4785C1.19829 4.07499 0.846762 4.88371 0.845703 5.72727L0.845703 10.8182C0.846762 11.6617 1.19829 12.4705 1.82318 13.067C2.44808 13.6634 3.29531 13.999 4.17904 14H13.5124C14.3961 13.999 15.2433 13.6634 15.8682 13.067C16.4931 12.4705 16.8446 11.6617 16.8457 10.8182V5.72727C16.8446 4.88371 16.4931 4.07499 15.8682 3.4785C15.2433 2.88202 14.3961 2.54646 13.5124 2.54545ZM7.51237 1.90909C7.51237 1.74032 7.58261 1.57846 7.70763 1.45911C7.83266 1.33977 8.00223 1.27273 8.17904 1.27273H9.51237C9.68918 1.27273 9.85875 1.33977 9.98377 1.45911C10.1088 1.57846 10.179 1.74032 10.179 1.90909V2.54545H7.51237V1.90909ZM10.8457 8.90909H9.51237V10.1818C9.51237 10.3506 9.44213 10.5125 9.31711 10.6318C9.19208 10.7511 9.02251 10.8182 8.8457 10.8182C8.66889 10.8182 8.49932 10.7511 8.3743 10.6318C8.24927 10.5125 8.17904 10.3506 8.17904 10.1818V8.90909H6.8457C6.66889 8.90909 6.49932 8.84205 6.3743 8.7227C6.24927 8.60336 6.17904 8.4415 6.17904 8.27273C6.17904 8.10395 6.24927 7.94209 6.3743 7.82275C6.49932 7.70341 6.66889 7.63636 6.8457 7.63636H8.17904V6.36364C8.17904 6.19486 8.24927 6.033 8.3743 5.91366C8.49932 5.79432 8.66889 5.72727 8.8457 5.72727C9.02251 5.72727 9.19208 5.79432 9.31711 5.91366C9.44213 6.033 9.51237 6.19486 9.51237 6.36364V7.63636H10.8457C11.0225 7.63636 11.1921 7.70341 11.3171 7.82275C11.4421 7.94209 11.5124 8.10395 11.5124 8.27273C11.5124 8.4415 11.4421 8.60336 11.3171 8.7227C11.1921 8.84205 11.0225 8.90909 10.8457 8.90909Z" fill="#020043"/>
</svg>
